<svg width="186" height="46" xmlns="http://www.w3.org/2000/svg" xmlns:xlink="http://www.w3.org/1999/xlink">
 <!-- Generator: Sketch 3.3.3 (12081) - http://www.bohemiancoding.com/sketch -->
 <title>btn_google_light_normal_ios</title>
 <desc>Created with Sketch.</desc>
 <defs>
  <filter id="filter-1" filterUnits="objectBoundingBox" height="200%" width="200%" y="-50%" x="-50%">
   <feGaussianBlur stdDeviation="0.5"/>
   <feGaussianBlur stdDeviation="0.5"/>
  </filter>
  <rect rx="2" height="40" width="40" y="0" x="0" id="path-2"/>
 </defs>
 <g>
  <title>background</title>
  <rect fill="none" id="canvas_background" height="46" width="188" y="-1" x="-1"/>
 </g>
 <g>
  <title>Layer 1</title>
  <g fill-rule="evenodd" fill="none" id="Google-Button">
   <g id="9-PATCH"/>
   <g stroke="null" filter="url(#filter-1)" id="button">
    <g stroke="null" id="button-bg">
     <use stroke="null" transform="matrix(4.482142838844794,0,0,1,-9.20280587929242,0) " id="svg_1" x="2.64286" y="3" xlink:href="#path-2" fill-rule="evenodd" fill="#FFFFFF"/>
     <use stroke="null" transform="matrix(4.482142838844794,0,0,1,-9.20280587929242,0) " id="svg_2" x="2.64286" y="3" xlink:href="#path-2" fill="none"/>
     <use stroke="null" transform="matrix(4.482142838844794,0,0,1,-9.20280587929242,0) " id="svg_3" x="2.64286" y="3" xlink:href="#path-2" fill="none"/>
     <use stroke="null" transform="matrix(4.482142838844794,0,0,1,-9.20280587929242,0) " id="svg_4" x="2.64286" y="3" xlink:href="#path-2" fill="none"/>
    </g>
   </g>
   <g stroke="null" id="logo_googleg_48dp">
    <path stroke="null" fill="#4285F4" id="Shape" d="m31.64,23.20455c0,-0.63819 -0.05727,-1.25182 -0.16364,-1.84091l-8.47636,0l0,3.48136l4.84364,0c-0.20864,1.125 -0.84273,2.07818 -1.79591,2.71636l0,2.25819l2.90863,0c1.70182,-1.56682 2.68364,-3.8741 2.68364,-6.615l0,0z"/>
    <path stroke="null" fill="#34A853" id="Shape" d="m23,32c2.43,0 4.46727,-0.80591 5.95636,-2.18045l-2.90863,-2.25819c-0.80591,0.54 -1.83682,0.85909 -3.04773,0.85909c-2.34409,0 -4.32818,-1.58318 -5.03591,-3.71045l-3.00682,0l0,2.33182c1.48091,2.94136 4.52455,4.95818 8.04273,4.95818l0,0z"/>
    <path stroke="null" fill="#FBBC05" id="Shape" d="m17.96409,24.71c-0.18,-0.54 -0.28227,-1.11682 -0.28227,-1.71c0,-0.59318 0.10227,-1.17 0.28227,-1.71l0,-2.33182l-3.00682,0c-0.60954,1.215 -0.95727,2.58955 -0.95727,4.04182c0,1.45227 0.34773,2.82682 0.95727,4.04182l3.00682,-2.33182l0,0z"/>
    <path stroke="null" fill="#EA4335" id="Shape" d="m23,17.57955c1.32136,0 2.50773,0.45409 3.44045,1.3459l2.58137,-2.58136c-1.55864,-1.45227 -3.59591,-2.34409 -6.02182,-2.34409c-3.51818,0 -6.56182,2.01682 -8.04273,4.95818l3.00682,2.33182c0.70773,-2.12727 2.69182,-3.71045 5.03591,-3.71045l0,0z"/>
    <path stroke="null" id="Shape" d="m14,14l18,0l0,18l-18,0l0,-18z"/>
   </g>
   <g stroke="null" id="handles_square"/>
   <text stroke="#000" transform="matrix(0.633554457458402,0,0,0.6268221735954285,75.7947515435691,12.379008210264146) " xml:space="preserve" text-anchor="start" font-family="Roboto, sans-serif" font-size="24" id="svg_5" y="25.31299" x="-45.3563" stroke-width="0" fill="#000000">Google로 로그인</text>
  </g>
 </g>
</svg>