<svg width="60" height="60" viewBox="0 0 60 60" fill="none" xmlns="http://www.w3.org/2000/svg">
<rect width="60" height="60" rx="25" fill="white"/>
<path d="M16.6806 36.6492L24.584 40.8577L17.4975 46.331L16.6806 36.6492Z" fill="white" stroke="#7606CE" stroke-width="2"/>
<g filter="url(#filter0_d)">
<ellipse cx="30" cy="27" rx="19" ry="16" fill="white"/>
<path d="M48 27C48 35.1301 40.109 42 30 42C19.891 42 12 35.1301 12 27C12 18.8699 19.891 12 30 12C40.109 12 48 18.8699 48 27Z" stroke="#0692CE" stroke-width="2"/>
</g>
<rect x="24" y="20" width="2" height="8" rx="1" fill="#404ACD"/>
<rect x="36" y="20" width="2" height="8" rx="1" fill="#404ACD"/>
<path d="M31 28L35.3301 34.75H26.6699L31 28Z" fill="#7606CE"/>
<defs>
<filter id="filter0_d" x="7" y="11" width="46" height="40" filterUnits="userSpaceOnUse" color-interpolation-filters="sRGB">
<feFlood flood-opacity="0" result="BackgroundImageFix"/>
<feColorMatrix in="SourceAlpha" type="matrix" values="0 0 0 0 0 0 0 0 0 0 0 0 0 0 0 0 0 0 127 0"/>
<feOffset dy="4"/>
<feGaussianBlur stdDeviation="2"/>
<feColorMatrix type="matrix" values="0 0 0 0 0 0 0 0 0 0 0 0 0 0 0 0 0 0 0.25 0"/>
<feBlend mode="normal" in2="BackgroundImageFix" result="effect1_dropShadow"/>
<feBlend mode="normal" in="SourceGraphic" in2="effect1_dropShadow" result="shape"/>
</filter>
</defs>
</svg>
