<svg width="487" height="270" viewBox="0 0 487 270" fill="none" xmlns="http://www.w3.org/2000/svg">
<g filter="url(#filter0_d)">
<path d="M274 36.5C211.5 27.1667 83.8 6.8 73 0L4 31.5L27.5 108L4 261.5H397L482.5 156L414.5 45L274 36.5Z" fill="white"/>
</g>
<path d="M77.336 129.256C67.288 126.376 64.344 119.528 64.344 112.424V109.224H53.784V112.68C53.784 119.912 50.584 127.528 40.024 130.728L45.144 138.92C52.12 136.744 56.6 132.456 59.224 127.144C61.784 131.816 65.88 135.464 72.088 137.32L77.336 129.256ZM55.576 157.096H65.688V140.84H45.528V148.328H55.704V150.12H45.592V166.824H49.368C57.816 166.824 62.104 166.824 67.16 165.864L66.392 158.312C62.936 158.952 59.928 159.144 55.576 159.208V157.096ZM77.208 148.264H80.152V159.464H77.208V148.264ZM68.44 166.888H88.92V140.84H68.44V166.888ZM96.344 118.184H88.92V107.048H78.552V138.792H88.92V126.504H96.344V118.184ZM119.315 110.824C109.907 110.824 102.547 117.224 102.547 125.928C102.547 134.696 109.907 141.096 119.315 141.096C128.787 141.096 136.147 134.696 136.147 125.928C136.147 117.224 128.787 110.824 119.315 110.824ZM119.315 119.592C123.091 119.592 126.035 121.704 126.035 125.928C126.035 130.216 123.091 132.328 119.315 132.328C115.603 132.328 112.659 130.216 112.659 125.928C112.659 121.704 115.603 119.592 119.315 119.592ZM140.563 106.92V167.208H150.931V106.92H140.563ZM101.523 155.56C111.763 155.56 125.523 155.368 138.323 152.808L137.619 145.448C125.139 147.176 110.739 147.304 100.371 147.304L101.523 155.56ZM213.999 124.648V129.384H205.039V124.648H213.999ZM194.927 134.248H186.159V127.08H194.927V134.248ZM205.039 137.512H213.999V151.272H224.367V107.048H213.999V116.52H205.039V111.016H194.927V119.272H186.159V111.016H175.919V142.376H205.039V137.512ZM194.351 158.056V146.92H183.983V166.184H225.647V158.056H194.351ZM268.074 113.256H255.786V107.432H245.418V113.256H233.066V121.256H268.074V113.256ZM250.666 130.728C253.802 130.728 255.85 131.88 255.85 134.376C255.85 136.936 253.802 138.088 250.666 138.088C247.53 138.088 245.482 136.936 245.482 134.376C245.482 131.88 247.53 130.728 250.666 130.728ZM255.786 145.128C261.738 143.72 265.642 139.624 265.642 134.376C265.642 127.656 259.37 122.984 250.666 122.984C241.962 122.984 235.69 127.656 235.69 134.376C235.626 139.624 239.53 143.72 245.418 145.128V149.48C240.554 149.608 235.882 149.608 231.85 149.608L233.066 157.864C242.986 157.864 256.298 157.864 268.778 155.368L268.01 147.944C264.042 148.52 259.946 148.84 255.786 149.096V145.128ZM287.658 130.792H281.066V107.048H270.698V167.016H281.066V139.24H287.658V130.792ZM329.125 116.392H297.957V131.56H340.453V124.712H308.197V122.728H339.365V107.624H297.957V114.472H329.125V116.392ZM307.621 157.864H339.493V142.824H297.317V149.672H329.253V151.528H297.381V166.76H341.029V159.912H307.621V157.864ZM291.429 133.416V140.776H345.765V133.416H291.429ZM359.264 161.896C363.168 161.896 366.048 158.76 366.048 154.792C366.048 150.824 363.168 147.752 359.264 147.752C355.296 147.752 352.48 150.824 352.48 154.792C352.48 158.76 355.296 161.896 359.264 161.896Z" fill="#0692CE"/>
<path d="M39.616 191H46.266V189.628H43.69C43.186 189.628 42.542 189.67 42.01 189.726C44.194 187.64 45.776 185.582 45.776 183.594C45.776 181.732 44.558 180.5 42.668 180.5C41.324 180.5 40.414 181.074 39.532 182.04L40.442 182.936C40.988 182.306 41.66 181.788 42.472 181.788C43.634 181.788 44.222 182.558 44.222 183.678C44.222 185.372 42.654 187.374 39.616 190.062V191ZM50.9744 191.182C52.9904 191.182 54.3064 189.39 54.3064 185.806C54.3064 182.25 52.9904 180.5 50.9744 180.5C48.9584 180.5 47.6424 182.236 47.6424 185.806C47.6424 189.39 48.9584 191.182 50.9744 191.182ZM50.9744 189.908C49.9244 189.908 49.1824 188.788 49.1824 185.806C49.1824 182.852 49.9244 181.774 50.9744 181.774C52.0244 181.774 52.7664 182.852 52.7664 185.806C52.7664 188.788 52.0244 189.908 50.9744 189.908ZM56.1728 191H62.0528V189.67H60.0368V180.682H58.8188C58.2308 181.06 57.5448 181.298 56.5788 181.48V182.502H58.4268V189.67H56.1728V191ZM66.9571 191.182C68.9451 191.182 70.2891 190.006 70.2891 188.48C70.2891 187.08 69.4771 186.268 68.5531 185.75V185.68C69.1971 185.204 69.9111 184.308 69.9111 183.258C69.9111 181.648 68.7911 180.528 66.9991 180.528C65.3191 180.528 64.0591 181.578 64.0591 183.188C64.0591 184.28 64.6751 185.05 65.4451 185.596V185.666C64.4931 186.17 63.5971 187.08 63.5971 188.438C63.5971 190.034 65.0251 191.182 66.9571 191.182ZM67.6291 185.274C66.4811 184.826 65.5011 184.308 65.5011 183.188C65.5011 182.264 66.1311 181.69 66.9711 181.69C67.9791 181.69 68.5531 182.404 68.5531 183.356C68.5531 184.042 68.2451 184.7 67.6291 185.274ZM66.9851 190.02C65.8791 190.02 65.0251 189.306 65.0251 188.284C65.0251 187.388 65.5151 186.618 66.2291 186.128C67.6291 186.702 68.7631 187.178 68.7631 188.438C68.7631 189.404 68.0491 190.02 66.9851 190.02ZM80.6815 188.774H82.1235V179.436H80.6815V180.976H77.3215V182.124H80.6815V183.37H77.3215V184.518H80.6815V188.774ZM78.7215 185.386C76.9715 185.694 75.4455 185.792 73.8075 185.806V180.304H72.3655V186.996H73.3455C75.2215 186.996 76.9015 186.912 78.8615 186.562L78.7215 185.386ZM75.3615 190.664V187.948H73.9195V191.84H82.4455V190.664H75.3615ZM93.1264 184.294H87.3444V182.684H93.1264V184.294ZM94.5684 179.926H93.1264V181.522H87.3444V179.926H85.9024V185.456H94.5684V179.926ZM95.9824 186.828H84.5164V187.99H89.4864V192.092H90.9284V187.99H95.9824V186.828ZM99.4113 185.232H103.317V184.084H99.4113V181.718H103.835V180.528H97.9693V189.138H98.9633C101.259 189.138 102.841 189.082 104.647 188.76L104.521 187.598C102.869 187.878 101.427 187.948 99.4113 187.962V185.232ZM106.453 179.408V184.056H104.031V185.246H106.453V192.092H107.909V179.408H106.453ZM118.095 180.486H116.653V182.558C116.653 184.994 115.337 187.416 113.321 188.326L114.175 189.53C115.701 188.788 116.821 187.29 117.395 185.456C117.969 187.164 119.075 188.564 120.531 189.25L121.371 188.102C119.383 187.206 118.095 184.882 118.095 182.558V180.486ZM122.379 179.422V192.106H123.835V179.422H122.379ZM133.746 185.442C131.814 184.798 130.75 183.244 130.75 181.648V181.424H133.396V180.248H126.606V181.424H129.294V181.648C129.294 183.384 128.188 184.994 126.186 185.666L126.942 186.8C128.426 186.282 129.476 185.246 130.036 183.916C130.582 185.12 131.59 186.086 133.004 186.548L133.746 185.442ZM127.866 188.83H134.74V192.078H136.182V187.668H127.866V188.83ZM137.974 182.656H136.182V179.422H134.74V187.052H136.182V183.846H137.974V182.656ZM149.607 179.422H148.165V188.928H149.607V179.422ZM147.269 185.904C146.261 186.016 145.197 186.086 144.105 186.128V184.63H146.471V183.454H141.767V181.396H146.401V180.22H140.325V184.63H142.663V186.184C141.459 186.226 140.283 186.24 139.233 186.24L139.429 187.402C141.781 187.402 144.707 187.332 147.367 186.954L147.269 185.904ZM142.719 190.664V188.27H141.277V191.84H149.999V190.664H142.719ZM163.74 182.054C163.74 183.692 163.74 185.554 163.25 188.046L164.706 188.2C165.182 185.526 165.182 183.748 165.182 182.054V180.696H156.432V181.858H163.74V182.054ZM155.214 189.124V190.314H166.652V189.124H155.214ZM177.733 186.114C177.803 185.708 177.845 185.288 177.845 184.812C177.845 184.28 177.789 183.804 177.691 183.342H180.281V186.114H177.733ZM174.639 187.99C173.561 187.99 172.805 186.8 172.805 184.812C172.805 182.852 173.561 181.662 174.639 181.662C175.731 181.662 176.473 182.852 176.473 184.812C176.473 186.8 175.731 187.99 174.639 187.99ZM180.281 179.422V182.152H177.299C176.725 181.018 175.787 180.36 174.639 180.36C172.777 180.36 171.447 182.096 171.447 184.812C171.447 187.556 172.777 189.278 174.639 189.278C175.843 189.278 176.837 188.55 177.369 187.304H180.281V192.106H181.737V179.422H180.281ZM190.906 182.614V183.79H193.146V186.968H194.588V179.436H193.146V182.614H190.906ZM191.634 185.428C189.744 184.77 188.666 183.202 188.666 181.62V181.452H191.298V180.29H184.536V181.452H187.21V181.634C187.21 183.37 186.076 185.05 184.116 185.75L184.858 186.898C186.356 186.366 187.42 185.246 187.98 183.86C188.512 185.078 189.52 186.072 190.92 186.562L191.634 185.428ZM190.388 190.972C188.582 190.972 187.56 190.524 187.56 189.698C187.56 188.872 188.582 188.424 190.388 188.424C192.166 188.424 193.202 188.872 193.202 189.698C193.202 190.524 192.166 190.972 190.388 190.972ZM190.388 187.304C187.742 187.304 186.118 188.2 186.118 189.698C186.118 191.21 187.742 192.092 190.388 192.092C193.02 192.092 194.644 191.21 194.644 189.698C194.644 188.2 193.02 187.304 190.388 187.304ZM202.707 180.15C200.061 180.15 198.059 181.578 198.059 183.72C198.059 185.876 200.061 187.29 202.707 187.29C205.339 187.29 207.355 185.876 207.355 183.72C207.355 181.578 205.339 180.15 202.707 180.15ZM202.707 181.34C204.569 181.34 205.955 182.264 205.955 183.72C205.955 185.176 204.569 186.1 202.707 186.1C200.831 186.1 199.459 185.176 199.459 183.72C199.459 182.264 200.831 181.34 202.707 181.34ZM196.995 189.292V190.482H208.447V189.292H196.995ZM216.3 189.404V187.248H220.248V186.086H212.674V184.322H219.968V180.318H211.232V181.48H218.54V183.174H211.26V187.248H214.858V189.404H209.874V190.594H221.326V189.404H216.3ZM228.362 183.566C228.362 182.194 229.72 181.326 231.61 181.326C233.486 181.326 234.844 182.194 234.844 183.566C234.844 184.938 233.486 185.806 231.61 185.806C229.72 185.806 228.362 184.938 228.362 183.566ZM232.324 189.348V186.94C234.634 186.73 236.258 185.442 236.258 183.566C236.258 181.508 234.284 180.178 231.61 180.178C228.922 180.178 226.962 181.508 226.962 183.566C226.962 185.442 228.572 186.716 230.882 186.926V189.348H225.898V190.524H237.35V189.348H232.324ZM245.931 183.72H243.019V181.186H245.931V183.72ZM241.577 183.72H239.855V184.882H249.081V183.72H247.373V181.186H249.151V180.024H239.785V181.186H241.577V183.72ZM241.66 188.256H240.205V191.84H248.927V190.664H241.66V188.256ZM238.763 186.072V187.248H250.215V186.072H238.763ZM262.617 185.414C260.125 184.994 258.095 183.118 258.095 181.158V180.206H256.569V181.158C256.569 183.104 254.539 184.994 252.033 185.414L252.649 186.618C254.707 186.212 256.499 184.952 257.339 183.272C258.151 184.952 259.943 186.212 262.015 186.618L262.617 185.414ZM258.039 189.32V186.366H256.597V189.32H251.655V190.51H263.107V189.32H258.039ZM275.496 185.61C273.004 185.162 270.974 183.216 270.974 181.2V180.248H269.448V181.2C269.448 183.202 267.418 185.148 264.926 185.61L265.542 186.8C267.6 186.38 269.378 185.064 270.204 183.328C271.03 185.064 272.808 186.38 274.866 186.8L275.496 185.61ZM264.534 189.264V190.454H275.986V189.264H264.534ZM279.177 183.258C279.177 182.152 280.017 181.452 281.165 181.452C282.313 181.452 283.139 182.152 283.139 183.258C283.139 184.364 282.313 185.05 281.165 185.05C280.017 185.05 279.177 184.364 279.177 183.258ZM281.893 186.226C283.461 185.946 284.539 184.812 284.539 183.258C284.539 181.466 283.111 180.22 281.165 180.22C279.219 180.22 277.777 181.466 277.777 183.258C277.777 184.812 278.883 185.96 280.451 186.24V188.228C279.317 188.256 278.225 188.256 277.273 188.256L277.469 189.446C279.639 189.446 282.537 189.432 285.183 188.97L285.057 187.906C284.049 188.046 282.971 188.13 281.893 188.172V186.226ZM289.089 184.532H287.241V179.436H285.799V192.064H287.241V185.736H289.089V184.532ZM304.399 185.414C301.907 184.994 299.877 183.118 299.877 181.158V180.206H298.351V181.158C298.351 183.104 296.321 184.994 293.815 185.414L294.431 186.618C296.489 186.212 298.281 184.952 299.121 183.272C299.933 184.952 301.725 186.212 303.797 186.618L304.399 185.414ZM299.821 189.32V186.366H298.379V189.32H293.437V190.51H304.889V189.32H299.821ZM313.47 185.918H310.558V181.788H313.47V185.918ZM309.116 185.918H307.296V187.094H316.732V185.918H314.898V181.788H316.76V180.626H307.254V181.788H309.116V185.918ZM306.302 189.334V190.524H317.782V189.334H306.302ZM329.372 186.114H322.078V184.378H328.994V183.244H322.078V181.62H329.274V180.458H320.608V187.276H329.372V186.114ZM319.194 189.348V190.524H330.66V189.348H319.194ZM335.237 181.27C336.105 181.27 336.707 181.788 336.707 182.558C336.707 183.328 336.105 183.846 335.237 183.846C334.355 183.846 333.753 183.328 333.753 182.558C333.753 181.788 334.355 181.27 335.237 181.27ZM335.237 184.924C336.833 184.924 337.995 183.958 337.995 182.558C337.995 181.158 336.833 180.192 335.237 180.192C333.627 180.192 332.465 181.158 332.465 182.558C332.465 183.958 333.627 184.924 335.237 184.924ZM338.373 185.442C336.357 185.736 333.599 185.75 331.891 185.75L332.059 186.94C332.745 186.94 333.599 186.926 334.509 186.898V191.07H335.881V186.828C336.763 186.758 337.659 186.646 338.485 186.492L338.373 185.442ZM339.101 187.654H336.903V188.76H339.101V191.462H340.445V179.688H339.101V187.654ZM341.551 179.422V192.078H342.923V179.422H341.551ZM348.354 187.99C347.276 187.99 346.534 186.814 346.534 184.812C346.534 182.852 347.276 181.662 348.354 181.662C349.446 181.662 350.188 182.852 350.188 184.812C350.188 186.814 349.446 187.99 348.354 187.99ZM353.996 179.422V184.14H351.532C351.336 181.816 350.048 180.36 348.354 180.36C346.492 180.36 345.162 182.096 345.162 184.812C345.162 187.556 346.492 189.278 348.354 189.278C350.09 189.278 351.378 187.766 351.546 185.316H353.996V192.106H355.452V179.422H353.996ZM365.4 180.486H363.958V182.558C363.958 184.896 362.726 187.29 360.752 188.256L361.634 189.418C363.076 188.676 364.14 187.206 364.686 185.456C365.232 187.108 366.24 188.48 367.598 189.18L368.48 188.032C366.576 187.094 365.4 184.812 365.4 182.558V180.486ZM372.736 184.448H370.762V179.436H369.32V192.078H370.762V185.638H372.736V184.448ZM379.539 190.972C377.691 190.972 376.655 190.58 376.655 189.81C376.655 189.054 377.691 188.648 379.539 188.648C381.387 188.648 382.437 189.054 382.437 189.81C382.437 190.58 381.387 190.972 379.539 190.972ZM379.539 187.542C376.823 187.542 375.185 188.368 375.185 189.81C375.185 191.266 376.823 192.078 379.539 192.078C382.269 192.078 383.893 191.266 383.893 189.81C383.893 188.368 382.269 187.542 379.539 187.542ZM377.999 184.294C378.461 184.364 379.007 184.406 379.567 184.406C380.127 184.406 380.645 184.364 381.107 184.294V185.582H377.999V184.294ZM379.567 180.766C381.443 180.766 382.577 181.214 382.577 182.026C382.577 182.838 381.443 183.3 379.567 183.3C377.677 183.3 376.543 182.838 376.543 182.026C376.543 181.214 377.677 180.766 379.567 180.766ZM382.549 185.582V183.916C383.515 183.496 384.075 182.852 384.075 182.026C384.075 180.542 382.325 179.646 379.567 179.646C376.795 179.646 375.059 180.542 375.059 182.026C375.059 182.852 375.605 183.496 376.557 183.902V185.582H373.841V186.73H385.279V185.582H382.549ZM391.158 181.886H393.832V180.696H386.958V181.886H389.716V183.104C389.716 185.204 388.428 187.598 386.496 188.522L387.322 189.67C388.778 188.956 389.898 187.444 390.458 185.68C391.032 187.276 392.11 188.676 393.524 189.348L394.322 188.214C392.404 187.304 391.158 185.064 391.158 183.104V181.886ZM398.494 184.42H396.52V179.436H395.078V192.078H396.52V185.61H398.494V184.42ZM409.706 182.516H402.51V180.934H409.58V179.772H401.082V183.678H409.706V182.516ZM402.412 189.768H409.608V186.632H400.956V187.738H408.194V188.718H400.984V191.952H409.972V190.832H402.412V189.768ZM399.626 184.546V185.708H411.064V184.546H399.626ZM415.333 188.032C414.465 188.032 413.933 186.898 413.933 184.896C413.933 182.894 414.465 181.774 415.333 181.774C416.201 181.774 416.733 182.894 416.733 184.896C416.733 186.898 416.201 188.032 415.333 188.032ZM419.379 184.224H418.021C417.867 181.858 416.845 180.416 415.333 180.416C413.695 180.416 412.617 182.124 412.617 184.896C412.617 187.668 413.695 189.39 415.333 189.39C416.873 189.39 417.909 187.878 418.035 185.414H419.379V191.476H420.723V179.674H419.379V184.224ZM421.913 179.436V192.064H423.285V179.436H421.913ZM432.146 184.462H430.284C430.648 183.384 430.816 182.222 430.816 180.99H425.902V182.152H429.388C429.178 184.742 427.932 186.814 425.3 188.382L426.126 189.404C427.876 188.354 429.08 187.08 429.822 185.624H432.146V191.476H433.504V179.744H432.146V184.462ZM434.792 179.436V192.078H436.178V179.436H434.792ZM41.772 201.774H46.07V200.598H40.33V209.012H41.324C43.676 209.012 45.216 208.928 46.966 208.592L46.826 207.43C45.216 207.724 43.83 207.794 41.772 207.808V201.774ZM48.772 199.422V203.916H45.384V205.106H48.772V212.106H50.214V199.422H48.772ZM57.6134 200.668H56.1714V208.928H57.2214C59.1254 208.928 61.0854 208.788 63.2274 208.368L63.0594 207.178C61.1414 207.57 59.3214 207.71 57.6134 207.724V200.668ZM67.4414 204.364H65.5234V199.436H64.0814V212.078H65.5234V205.554H67.4414V204.364ZM74.3283 200.99C76.1763 200.99 77.3383 201.508 77.3383 202.39C77.3383 203.286 76.1763 203.804 74.3283 203.804C72.4663 203.804 71.3043 203.286 71.3043 202.39C71.3043 201.508 72.4663 200.99 74.3283 200.99ZM74.3283 204.966C77.0583 204.966 78.8363 204 78.8363 202.39C78.8363 200.794 77.0583 199.828 74.3283 199.828C71.5983 199.828 69.8203 200.794 69.8203 202.39C69.8203 204 71.5983 204.966 74.3283 204.966ZM71.5003 208.158H70.0443V211.84H78.7663V210.664H71.5003V208.158ZM68.6023 205.988V207.164H80.0403V205.988H68.6023ZM93.6698 208.844H95.1118V199.436H93.6698V202.278H91.1078V203.468H93.6698V208.844ZM92.1018 205.736C90.2118 205.05 89.1478 203.412 89.1478 201.704V200.206H87.6778V201.676C87.6778 203.552 86.5858 205.33 84.6118 206.03L85.3818 207.15C86.8378 206.59 87.8878 205.47 88.4478 204.056C88.9798 205.33 89.9738 206.352 91.3318 206.856L92.1018 205.736ZM88.3358 210.664V207.85H86.8798V211.84H95.4058V210.664H88.3358ZM103.315 205.05C102.069 205.288 100.991 205.344 99.3947 205.358V203.944H102.783V202.824H99.3947V201.494H102.923V200.332H97.9947V206.534H98.8487C100.809 206.534 102.013 206.492 103.469 206.226L103.315 205.05ZM99.6327 208.9H106.773V212.092H108.215V207.738H99.6327V208.9ZM106.843 199.436V202.642H105.443V199.674H104.099V207.038H105.443V203.818H106.843V207.122H108.215V199.436H106.843ZM116.11 200.71C118.07 200.71 119.12 201.088 119.12 201.816C119.12 202.53 118.07 202.908 116.11 202.908C114.15 202.908 113.1 202.53 113.1 201.816C113.1 201.088 114.15 200.71 116.11 200.71ZM116.11 203.986C118.938 203.986 120.618 203.216 120.618 201.816C120.618 200.402 118.938 199.632 116.11 199.632C113.268 199.632 111.602 200.402 111.602 201.816C111.602 203.216 113.268 203.986 116.11 203.986ZM113.198 209.81H120.394V206.786H111.742V207.878H118.98V208.788H111.77V211.966H120.758V210.86H113.198V209.81ZM110.384 204.728V205.876H121.836V204.728H110.384ZM136.585 205.4H129.263V201.718H136.487V200.542H127.821V206.562H136.585V205.4ZM126.421 209.264V210.454H137.887V209.264H126.421ZM146.958 204.63C145.124 204.938 143.542 205.008 141.372 205.008V203.608H145.698V200.024H139.916V201.2H144.284V202.516H139.944V206.184H141.008C143.43 206.184 145.138 206.128 147.126 205.806L146.958 204.63ZM148.288 210.762H142.87V209.446H148.288V210.762ZM148.288 208.312H142.87V207.01H141.428V211.924H149.716V207.01H148.288V208.312ZM148.274 199.436V206.422H149.716V199.436H148.274ZM154.349 200.668H152.921V208.886H153.999C155.959 208.886 158.003 208.732 160.173 208.284L160.019 207.08C158.031 207.486 156.141 207.64 154.349 207.654V200.668ZM161.181 199.436V212.078H162.623V199.436H161.181ZM167.004 201.802H171.442V200.626H165.562V208.984H166.598C168.88 208.984 170.588 208.914 172.506 208.564L172.352 207.374C170.588 207.682 169.048 207.766 167.004 207.78V201.802ZM176.818 204.294H174.844V199.422H173.402V212.092H174.844V205.484H176.818V204.294ZM179.309 211.182C179.911 211.182 180.387 210.72 180.387 210.062C180.387 209.39 179.911 208.914 179.309 208.914C178.707 208.914 178.231 209.39 178.231 210.062C178.231 210.72 178.707 211.182 179.309 211.182Z" fill="black"/>
<path d="M46.9659 111.703L43.2118 90.5238L62.2052 96.5237L46.9659 111.703Z" fill="#404ACD"/>
<rect x="39" y="50" width="140" height="56" rx="28" fill="#404ACD"/>
<path d="M374.748 253.099L372.438 242.32L384.126 245.374L374.748 253.099Z" fill="#0692CE"/>
<rect x="303.846" y="220" width="86.1538" height="28.5013" rx="14.2507" fill="#0692CE"/>
<path d="M332.264 234.764C328.52 234.134 326.468 231.56 326.468 229.13V227.942H323.93V229.13C323.93 231.506 321.86 234.134 318.134 234.764L319.142 236.762C322.022 236.204 324.128 234.584 325.19 232.478C326.252 234.584 328.376 236.186 331.256 236.762L332.264 234.764ZM317.774 239.606V241.532H332.786V239.606H317.774ZM335.557 233.306L335.845 235.232L345.313 234.746C345.205 235.862 345.025 237.068 344.701 238.418L347.041 238.652C347.815 235.052 347.815 232.766 347.815 230.354V228.428H336.025V230.318H345.475V230.354C345.475 231.2 345.475 232.064 345.439 232.982L335.557 233.306ZM334.351 239.642V241.586H349.327V239.642H334.351ZM354.959 240.92H364.121V236.978H352.583V238.58H361.763V239.426H352.601V243.422H364.571V241.838H354.959V240.92ZM359.585 234.494V233.612H364.373V232.01H355.103V231.146H364.067V227.24H352.727V228.842H361.727V229.652H352.763V233.612H357.209V234.494H350.891V236.204H365.903V234.494H359.585ZM371.212 237.41L370.852 232.334L370.762 229.94H373.39L373.3 232.334L372.94 237.41H371.212ZM372.076 242.216C371.56 242.216 371.128 242.048 370.78 241.712C370.444 241.364 370.276 240.92 370.276 240.38C370.276 239.84 370.444 239.408 370.78 239.084C371.128 238.748 371.56 238.58 372.076 238.58C372.592 238.58 373.018 238.748 373.354 239.084C373.702 239.408 373.876 239.84 373.876 240.38C373.876 240.92 373.702 241.364 373.354 241.712C373.018 242.048 372.592 242.216 372.076 242.216Z" fill="white"/>
<path d="M199.178 59.848C192.266 59.848 187.034 64.408 187.034 70.744C187.034 77.128 192.266 81.64 199.178 81.64C206.09 81.64 211.37 77.128 211.37 70.744C211.37 64.408 206.09 59.848 199.178 59.848ZM199.178 65.272C202.586 65.272 205.178 67.288 205.178 70.744C205.178 74.2 202.586 76.216 199.178 76.216C195.77 76.216 193.178 74.2 193.178 70.744C193.178 67.288 195.77 65.272 199.178 65.272ZM215.498 56.872V101.224H221.834V56.872H215.498ZM185.978 92.248C193.61 92.248 203.978 92.152 213.482 90.232L213.098 85.672C203.786 87.064 192.938 87.112 185.162 87.112L185.978 92.248ZM288.532 69.352V73.768H280.66V69.352H288.532ZM274.468 77.656H266.068V71.416H274.468V77.656ZM280.66 78.808H288.532V89.56H294.868V56.92H288.532V64.264H280.66V59.848H274.468V66.568H266.068V59.848H259.78V82.696H280.66V78.808ZM272.02 95.32V86.392H265.684V100.36H295.828V95.32H272.02ZM328.416 61.768H318.624V57.112H312.288V61.768H302.4V66.76H328.416V61.768ZM310.656 76.792C310.656 74.536 312.576 73.288 315.456 73.288C318.336 73.288 320.256 74.536 320.256 76.792C320.256 79.144 318.336 80.392 315.456 80.392C312.576 80.392 310.656 79.144 310.656 76.792ZM318.624 84.808C323.232 83.848 326.256 80.872 326.256 76.792C326.256 71.848 321.792 68.488 315.456 68.488C309.12 68.488 304.656 71.848 304.656 76.792C304.656 80.872 307.68 83.848 312.288 84.808V88.552C308.4 88.648 304.752 88.648 301.584 88.648L302.352 93.784C309.84 93.784 319.776 93.784 329.088 91.96L328.608 87.4C325.44 87.88 322.032 88.12 318.624 88.312V84.808ZM342.72 74.92H337.2V56.92H330.864V101.128H337.2V80.152H342.72V74.92ZM375.116 64.12H351.212V74.68H382.124V70.408H357.452V68.104H381.356V57.688H351.116V61.96H375.116V64.12ZM357.068 94.072H381.5V83.56H350.732V87.832H375.212V90.088H350.78V100.744H382.7V96.472H357.068V94.072ZM346.22 76.792V81.352H386.252V76.792H346.22ZM398.825 107.416L397.049 103.288C399.193 102.552 400.777 101.592 401.801 100.408C402.857 99.256 403.353 97.944 403.289 96.472C403.161 96.504 402.985 96.52 402.761 96.52C402.089 96.52 401.433 96.424 400.793 96.232C400.185 96.008 399.641 95.688 399.161 95.272C398.681 94.856 398.297 94.344 398.009 93.736C397.721 93.128 397.577 92.424 397.577 91.624C397.577 90.12 398.089 88.92 399.113 88.024C400.169 87.128 401.449 86.68 402.953 86.68C404.937 86.68 406.425 87.416 407.417 88.888C408.409 90.328 408.905 92.344 408.905 94.936C408.905 98.008 408.057 100.6 406.361 102.712C404.665 104.824 402.153 106.392 398.825 107.416Z" fill="#7606CE"/>
<path d="M69.16 82.108H64.912V68.068H69.16V82.108ZM76.756 72.964H73.552V64.324H60.484V85.816H73.552V76.816H76.756V92.584H81.184V61.444H76.756V72.964ZM83.488 60.904V94.06H87.988V60.904H83.488ZM105.517 63.496H100.765V68.32C100.765 74.764 98.0292 81.172 92.2332 83.656L95.0772 87.58C99.0372 85.708 101.737 82.144 103.213 77.716C104.689 81.784 107.245 85.06 111.061 86.788L113.761 82.936C108.145 80.524 105.517 74.476 105.517 68.32V63.496ZM115.381 60.904V94.168H120.133V60.904H115.381ZM153.322 60.94H148.534V80.632H153.322V60.94ZM146.446 75.88C141.298 74.296 138.886 70.588 138.67 66.88H145.222V63.136H127.186V66.88H133.846C133.666 70.948 131.254 74.98 125.926 76.708L128.374 80.416C132.226 79.156 134.89 76.528 136.366 73.288C137.878 76.168 140.398 78.472 144.07 79.588L146.446 75.88ZM142.126 90.532C137.806 90.532 135.502 89.632 135.502 87.76C135.502 85.852 137.806 84.952 142.126 84.952C146.41 84.952 148.714 85.852 148.714 87.76C148.714 89.632 146.41 90.532 142.126 90.532ZM142.126 81.28C135.142 81.28 130.786 83.656 130.786 87.76C130.786 91.792 135.142 94.168 142.126 94.168C149.074 94.168 153.43 91.792 153.43 87.76C153.43 83.656 149.074 81.28 142.126 81.28Z" fill="white"/>
<defs>
<filter id="filter0_d" x="0" y="0" width="486.5" height="269.5" filterUnits="userSpaceOnUse" color-interpolation-filters="sRGB">
<feFlood flood-opacity="0" result="BackgroundImageFix"/>
<feColorMatrix in="SourceAlpha" type="matrix" values="0 0 0 0 0 0 0 0 0 0 0 0 0 0 0 0 0 0 127 0"/>
<feOffset dy="4"/>
<feGaussianBlur stdDeviation="2"/>
<feColorMatrix type="matrix" values="0 0 0 0 0 0 0 0 0 0 0 0 0 0 0 0 0 0 0.25 0"/>
<feBlend mode="normal" in2="BackgroundImageFix" result="effect1_dropShadow"/>
<feBlend mode="normal" in="SourceGraphic" in2="effect1_dropShadow" result="shape"/>
</filter>
</defs>
</svg>
