<svg width="209" height="46" viewBox="0 0 209 46" fill="none" xmlns="http://www.w3.org/2000/svg">
<rect width="209" height="46" fill="white"/>
<path d="M16.04 16.568H18.728V26.672C17.816 26.72 16.928 26.744 16.04 26.768V16.568ZM20.528 16.568H22.304V14.984H12.464V16.568H14.24V26.816C13.424 26.84 12.704 26.84 12.056 26.84L12.248 28.472C15.056 28.472 19.568 28.376 22.904 27.752L22.784 26.312C22.088 26.408 21.296 26.48 20.528 26.552V16.568ZM24.608 20.456H21.656V22.184H24.608V32.648H26.456V12.776H24.608V20.456ZM28.76 12.272V33.776H30.656V12.272H28.76ZM49.9981 12.248V33.824H51.9661V12.248H49.9981ZM40.6141 13.904C37.4221 13.904 35.1421 16.832 35.1421 21.416C35.1421 26 37.4221 28.928 40.6141 28.928C43.8061 28.928 46.0861 26 46.0861 21.416C46.0861 16.832 43.8061 13.904 40.6141 13.904ZM40.6141 15.68C42.7021 15.68 44.1901 17.936 44.1901 21.416C44.1901 24.92 42.7021 27.176 40.6141 27.176C38.5021 27.176 37.0141 24.92 37.0141 21.416C37.0141 17.936 38.5021 15.68 40.6141 15.68ZM61.0123 16.112H64.4923V26.624C63.3163 26.696 62.1403 26.744 61.0123 26.768V16.112ZM66.4123 16.112H68.8123V14.504H56.9323V16.112H59.0923V26.792C58.1083 26.816 57.1243 26.816 56.2603 26.816L56.4763 28.472C60.2203 28.472 65.2603 28.352 69.6283 27.68L69.4843 26.24C68.4763 26.36 67.4683 26.456 66.4123 26.504V16.112ZM72.1963 12.272V20.36H68.0923V21.992H72.1963V33.776H74.1643V12.272H72.1963ZM80.2584 20.072L80.5464 21.752L93.5544 21.056C93.4104 22.544 93.1944 24.224 92.7864 26.144L94.7304 26.384C95.6424 21.968 95.6424 19.016 95.6424 16.376V14.336H80.8344V15.944H93.6984V16.376C93.6984 17.36 93.6984 18.392 93.6504 19.52L80.2584 20.072ZM88.0584 29.24V23.648H86.0904V29.24H78.5064V30.848H97.9704V29.24H88.0584ZM106.345 27.176C104.281 27.176 102.84 24.92 102.84 21.416C102.84 17.936 104.281 15.68 106.345 15.68C108.385 15.68 109.825 17.936 109.825 21.416C109.825 24.92 108.385 27.176 106.345 27.176ZM116.353 12.248V20.456H111.673C111.361 16.424 109.249 13.904 106.345 13.904C103.201 13.904 100.969 16.832 100.969 21.416C100.969 26 103.201 28.928 106.345 28.928C109.345 28.928 111.481 26.288 111.673 22.064H116.353V33.824H118.321V12.248H116.353ZM129.647 13.832C126.311 13.832 123.887 15.872 123.887 18.896C123.887 21.896 126.311 23.96 129.647 23.96C133.007 23.96 135.407 21.896 135.407 18.896C135.407 15.872 133.007 13.832 129.647 13.832ZM129.647 15.512C131.879 15.512 133.487 16.88 133.487 18.896C133.487 20.888 131.879 22.28 129.647 22.28C127.439 22.28 125.807 20.888 125.807 18.896C125.807 16.88 127.439 15.512 129.647 15.512ZM138.239 12.248V33.824H140.207V12.248H138.239ZM123.047 29.096C126.935 29.096 132.143 29.048 136.991 28.16L136.823 26.696C132.119 27.416 126.719 27.44 122.807 27.44L123.047 29.096ZM158.326 14.12H156.382V17.984C156.382 22.064 153.766 26.192 150.598 27.704L151.798 29.312C154.318 28.016 156.382 25.328 157.366 22.088C158.398 25.16 160.462 27.704 162.91 28.904L164.086 27.32C160.894 25.88 158.326 21.92 158.326 17.984V14.12ZM166.342 12.248V33.824H168.31V12.248H166.342ZM185.276 22.784C182.108 21.704 180.044 19.04 180.044 16.184V15.344H184.796V13.76H173.252V15.344H178.076V16.208C178.076 19.28 175.916 22.064 172.676 23.192L173.708 24.752C176.228 23.816 178.172 21.92 179.084 19.52C180.02 21.728 181.868 23.48 184.268 24.32L185.276 22.784ZM175.46 27.968H187.508V33.8H189.476V26.384H175.46V27.968ZM192.668 17.912H189.476V12.272H187.508V25.232H189.476V19.544H192.668V17.912Z" fill="url(#paint0_angular)"/>
<defs>
<radialGradient id="paint0_angular" cx="0" cy="0" r="1" gradientUnits="userSpaceOnUse" gradientTransform="translate(104 24) rotate(90) scale(14 93)">
<stop stop-color="#7606CE"/>
<stop offset="1" stop-color="#0692CE"/>
</radialGradient>
</defs>
</svg>
