<svg width="680" height="277" xmlns="http://www.w3.org/2000/svg" xmlns:xlink="http://www.w3.org/1999/xlink" overflow="hidden"><defs><clipPath id="clip0"><rect x="58" y="144" width="680" height="277"/></clipPath></defs><g clip-path="url(#clip0)" transform="translate(-58 -144)"><text font-family="Noto Sans KR,Noto Sans KR_MSFontService,sans-serif" font-weight="700" font-size="128" transform="translate(206.05 303)">Unlink<tspan fill="#4899E1" font-family="NanumBarunGothicOTF,NanumBarunGothicOTF_MSFontService,sans-serif" font-weight="600" x="416.333" y="0">.</tspan></text><path d="M136.142 246.544 150.681 259.878C158.711 267.243 158.749 280.269 150.766 288.973 142.784 297.677 129.803 298.763 121.773 291.399L107.234 278.065Z" stroke="#4899E1" stroke-width="8" stroke-miterlimit="8" fill="#FFFFFF" fill-rule="evenodd"/><path d="M0 0 24.0475 0.52315" stroke="#4899E1" stroke-width="8" stroke-miterlimit="8" fill="none" fill-rule="evenodd" transform="matrix(0.736993 0.675901 0.675901 -0.736993 150.766 288.973)"/><path d="M95.2649 267.548 80.7256 254.214C72.6958 246.85 72.6575 233.824 80.6401 225.12 88.6227 216.416 101.603 215.33 109.633 222.694L124.172 236.028Z" stroke="#4899E1" stroke-width="8" stroke-miterlimit="8" fill="#4899E1" fill-rule="evenodd"/><path d="M0 0 24.0475 0.52315" stroke="#4899E1" stroke-width="8" stroke-miterlimit="8" fill="#4899E1" fill-rule="evenodd" transform="matrix(-0.736993 -0.675901 -0.675901 0.736993 80.6402 225.12)"/></g></svg>